<svg width="81" height="17" viewBox="0 0 81 17" fill="none" xmlns="http://www.w3.org/2000/svg">
<path d="M8.00416 2.20833C8.03337 2.1493 8.07851 2.09961 8.13447 2.06487C8.19043 2.03013 8.25499 2.01172 8.32085 2.01172C8.38672 2.01172 8.45128 2.03013 8.50724 2.06487C8.5632 2.09961 8.60833 2.1493 8.63755 2.20833L10.1777 5.32797C10.2792 5.5333 10.4289 5.71094 10.6142 5.84565C10.7994 5.98036 11.0145 6.06811 11.2411 6.10138L14.6855 6.60542C14.7507 6.61488 14.812 6.64241 14.8625 6.6849C14.9129 6.72739 14.9504 6.78314 14.9708 6.84585C14.9912 6.90856 14.9937 6.97573 14.9779 7.03976C14.9621 7.10378 14.9287 7.16211 14.8815 7.20815L12.3906 9.63372C12.2263 9.7938 12.1034 9.9914 12.0324 10.2095C11.9615 10.4276 11.9446 10.6597 11.9832 10.8858L12.5713 14.3128C12.5828 14.3781 12.5757 14.4452 12.5509 14.5066C12.5261 14.5681 12.4845 14.6213 12.4309 14.6602C12.3773 14.6991 12.3139 14.7222 12.2478 14.7268C12.1817 14.7314 12.1157 14.7173 12.0572 14.6862L8.97825 13.0674C8.77537 12.9609 8.54966 12.9052 8.32052 12.9052C8.09138 12.9052 7.86566 12.9609 7.66279 13.0674L4.58449 14.6862C4.52604 14.7171 4.46008 14.7311 4.39411 14.7264C4.32814 14.7217 4.26481 14.6986 4.21132 14.6597C4.15783 14.6208 4.11634 14.5676 4.09155 14.5063C4.06676 14.445 4.05968 14.378 4.07111 14.3128L4.6585 10.8865C4.6973 10.6603 4.68049 10.4281 4.60952 10.2098C4.53855 9.99155 4.41555 9.79383 4.25113 9.63372L1.76022 7.20882C1.71261 7.16283 1.67887 7.1044 1.66285 7.04018C1.64683 6.97596 1.64917 6.90853 1.6696 6.84557C1.69003 6.78262 1.72773 6.72666 1.77841 6.68409C1.82908 6.64151 1.8907 6.61402 1.95624 6.60476L5.3999 6.10138C5.62676 6.06837 5.84221 5.98074 6.02769 5.84601C6.21317 5.71128 6.36313 5.5335 6.46467 5.32797L8.00416 2.20833Z" fill="#FACC15" stroke="#FACC15" stroke-width="1.33333" stroke-linecap="round" stroke-linejoin="round"/>
<path d="M24.0063 2.20833C24.0355 2.1493 24.0807 2.09961 24.1366 2.06487C24.1926 2.03013 24.2572 2.01172 24.323 2.01172C24.3889 2.01172 24.4535 2.03013 24.5094 2.06487C24.5654 2.09961 24.6105 2.1493 24.6397 2.20833L26.1799 5.32797C26.2814 5.5333 26.4312 5.71094 26.6164 5.84565C26.8016 5.98036 27.0168 6.06811 27.2434 6.10138L30.6878 6.60542C30.7531 6.61488 30.8144 6.64241 30.8649 6.6849C30.9153 6.72739 30.9528 6.78314 30.9732 6.84585C30.9936 6.90856 30.9961 6.97573 30.9803 7.03976C30.9645 7.10378 30.9311 7.16211 30.8839 7.20815L28.3929 9.63372C28.2286 9.7938 28.1057 9.9914 28.0347 10.2095C27.9638 10.4276 27.9469 10.6597 27.9855 10.8858L28.5736 14.3128C28.5851 14.3781 28.578 14.4452 28.5532 14.5066C28.5284 14.5681 28.4868 14.6213 28.4332 14.6602C28.3797 14.6991 28.3162 14.7222 28.2501 14.7268C28.184 14.7314 28.118 14.7173 28.0595 14.6862L24.9804 13.0674C24.7776 12.9609 24.5518 12.9052 24.3227 12.9052C24.0935 12.9052 23.8678 12.9609 23.6649 13.0674L20.5865 14.6862C20.5281 14.7171 20.4621 14.7311 20.3962 14.7264C20.3302 14.7217 20.2668 14.6986 20.2134 14.6597C20.1599 14.6208 20.1184 14.5676 20.0936 14.5063C20.0688 14.445 20.0617 14.378 20.0731 14.3128L20.6606 10.8865C20.6994 10.6603 20.6825 10.4281 20.6116 10.2098C20.5406 9.99155 20.4176 9.79383 20.2532 9.63372L17.7622 7.20882C17.7146 7.16283 17.6808 7.1044 17.6648 7.04018C17.6488 6.97596 17.6511 6.90853 17.6716 6.84557C17.692 6.78262 17.7297 6.72666 17.7804 6.68409C17.831 6.64151 17.8927 6.61402 17.9582 6.60476L21.402 6.10138C21.6288 6.06837 21.8443 5.98074 22.0298 5.84601C22.2153 5.71128 22.3652 5.5335 22.4668 5.32797L24.0063 2.20833Z" fill="#FACC15" stroke="#FACC15" stroke-width="1.33333" stroke-linecap="round" stroke-linejoin="round"/>
<path d="M40.0083 2.20834C40.0375 2.14931 40.0826 2.09961 40.1386 2.06487C40.1945 2.03013 40.2591 2.01172 40.325 2.01172C40.3908 2.01172 40.4554 2.03013 40.5114 2.06487C40.5673 2.09961 40.6125 2.14931 40.6417 2.20834L42.1819 5.32808C42.2833 5.53341 42.4331 5.71106 42.6184 5.84578C42.8036 5.98049 43.0187 6.06825 43.2454 6.10151L46.6898 6.60557C46.7551 6.61503 46.8164 6.64256 46.8668 6.68505C46.9172 6.72754 46.9548 6.7833 46.9752 6.84601C46.9956 6.90872 46.998 6.97589 46.9822 7.03992C46.9664 7.10395 46.933 7.16228 46.8858 7.20832L44.3948 9.63396C44.2306 9.79405 44.1076 9.99166 44.0367 10.2098C43.9657 10.4279 43.9488 10.66 43.9874 10.8861L44.5755 14.3132C44.587 14.3785 44.58 14.4456 44.5552 14.507C44.5304 14.5685 44.4888 14.6217 44.4352 14.6606C44.3816 14.6995 44.3181 14.7226 44.2521 14.7272C44.186 14.7318 44.1199 14.7177 44.0615 14.6866L40.9824 13.0677C40.7795 12.9612 40.5538 12.9056 40.3246 12.9056C40.0955 12.9056 39.8698 12.9612 39.6669 13.0677L36.5885 14.6866C36.53 14.7176 36.4641 14.7315 36.3981 14.7268C36.3321 14.7221 36.2688 14.699 36.2153 14.6601C36.1618 14.6212 36.1203 14.5681 36.0955 14.5067C36.0707 14.4454 36.0637 14.3784 36.0751 14.3132L36.6625 10.8868C36.7013 10.6606 36.6845 10.4283 36.6135 10.2101C36.5425 9.99181 36.4195 9.79409 36.2551 9.63396L33.7641 7.20898C33.7165 7.163 33.6828 7.10457 33.6668 7.04035C33.6507 6.97612 33.6531 6.90869 33.6735 6.84573C33.6939 6.78277 33.7316 6.72682 33.7823 6.68424C33.833 6.64166 33.8946 6.61417 33.9602 6.60491L37.4039 6.10151C37.6308 6.0685 37.8462 5.98086 38.0317 5.84613C38.2172 5.7114 38.3672 5.53362 38.4687 5.32808L40.0083 2.20834Z" fill="#FACC15" stroke="#FACC15" stroke-width="1.33333" stroke-linecap="round" stroke-linejoin="round"/>
<path d="M56.0102 2.20834C56.0394 2.14931 56.0846 2.09961 56.1405 2.06487C56.1965 2.03013 56.2611 2.01172 56.3269 2.01172C56.3928 2.01172 56.4574 2.03013 56.5133 2.06487C56.5693 2.09961 56.6144 2.14931 56.6436 2.20834L58.1838 5.32808C58.2853 5.53341 58.4351 5.71106 58.6203 5.84578C58.8055 5.98049 59.0207 6.06825 59.2473 6.10151L62.6918 6.60557C62.757 6.61503 62.8183 6.64256 62.8688 6.68505C62.9192 6.72754 62.9567 6.7833 62.9771 6.84601C62.9975 6.90872 63 6.97589 62.9842 7.03992C62.9684 7.10395 62.935 7.16228 62.8878 7.20832L60.3968 9.63396C60.2325 9.79405 60.1096 9.99166 60.0386 10.2098C59.9677 10.4279 59.9508 10.66 59.9894 10.8861L60.5775 14.3132C60.589 14.3785 60.582 14.4456 60.5571 14.507C60.5323 14.5685 60.4908 14.6217 60.4372 14.6606C60.3836 14.6995 60.3201 14.7226 60.254 14.7272C60.1879 14.7318 60.1219 14.7177 60.0634 14.6866L56.9843 13.0677C56.7815 12.9612 56.5557 12.9056 56.3266 12.9056C56.0974 12.9056 55.8717 12.9612 55.6688 13.0677L52.5904 14.6866C52.532 14.7176 52.466 14.7315 52.4001 14.7268C52.3341 14.7221 52.2708 14.699 52.2173 14.6601C52.1638 14.6212 52.1223 14.5681 52.0975 14.5067C52.0727 14.4454 52.0656 14.3784 52.077 14.3132L52.6645 10.8868C52.7033 10.6606 52.6864 10.4283 52.6155 10.2101C52.5445 9.99181 52.4215 9.79409 52.2571 9.63396L49.7661 7.20898C49.7185 7.163 49.6847 7.10457 49.6687 7.04035C49.6527 6.97612 49.655 6.90869 49.6755 6.84573C49.6959 6.78277 49.7336 6.72682 49.7843 6.68424C49.835 6.64166 49.8966 6.61417 49.9621 6.60491L53.4059 6.10151C53.6328 6.0685 53.8482 5.98086 54.0337 5.84613C54.2192 5.7114 54.3691 5.53362 54.4707 5.32808L56.0102 2.20834Z" fill="#FACC15" stroke="#FACC15" stroke-width="1.33333" stroke-linecap="round" stroke-linejoin="round"/>
<path d="M72.007 2.20724C72.0362 2.14824 72.0813 2.09858 72.1373 2.06386C72.1932 2.02914 72.2577 2.01074 72.3235 2.01074C72.3894 2.01074 72.4539 2.02914 72.5098 2.06386C72.5657 2.09858 72.6108 2.14824 72.64 2.20724L74.1792 5.32503C74.2806 5.53024 74.4303 5.70778 74.6154 5.84241C74.8005 5.97704 75.0155 6.06474 75.242 6.09798L78.6842 6.60173C78.7494 6.61118 78.8107 6.63869 78.8611 6.68116C78.9115 6.72362 78.949 6.77934 78.9694 6.84202C78.9897 6.90469 78.9922 6.97182 78.9764 7.03581C78.9606 7.09979 78.9273 7.15809 78.8801 7.2041L76.3907 9.62823C76.2265 9.78822 76.1037 9.98571 76.0328 10.2037C75.9619 10.4217 75.945 10.6536 75.9836 10.8796L76.5713 14.3046C76.5828 14.3698 76.5758 14.4369 76.551 14.4983C76.5262 14.5597 76.4846 14.6128 76.4311 14.6517C76.3775 14.6906 76.3141 14.7137 76.248 14.7183C76.182 14.7229 76.116 14.7088 76.0576 14.6777L72.9805 13.0599C72.7778 12.9534 72.5522 12.8978 72.3232 12.8978C72.0942 12.8978 71.8686 12.9534 71.6659 13.0599L68.5895 14.6777C68.5311 14.7087 68.4652 14.7226 68.3992 14.7179C68.3333 14.7132 68.27 14.6901 68.2166 14.6512C68.1631 14.6123 68.1216 14.5592 68.0969 14.498C68.0721 14.4367 68.065 14.3697 68.0764 14.3046L68.6635 10.8803C68.7022 10.6542 68.6854 10.4221 68.6145 10.204C68.5436 9.98585 68.4207 9.78825 68.2563 9.62823L65.767 7.20476C65.7194 7.15881 65.6857 7.10041 65.6697 7.03623C65.6537 6.97205 65.656 6.90466 65.6764 6.84174C65.6968 6.77882 65.7345 6.7229 65.7852 6.68035C65.8358 6.6378 65.8974 6.61032 65.9629 6.60106L69.4044 6.09798C69.6311 6.065 69.8464 5.97741 70.0318 5.84276C70.2172 5.70812 70.367 5.53044 70.4685 5.32503L72.007 2.20724Z" fill="#FACC15" stroke="#FACC15" stroke-width="1.33333" stroke-linecap="round" stroke-linejoin="round"/>
</svg>
